<svg xmlns="http://www.w3.org/2000/svg" width="79.331" height="27.903" viewBox="0 0 79.331 27.903">
            <g id="Group_62" data-name="Group 62" transform="translate(-17.017 -340.42)">
                <g id="Group_26" data-name="Group 26" transform="translate(17.535 364.326)">
                    <path id="Path_59" data-name="Path 59" d="M20.052,451.7h.571l-.254,1.2H21.6l.254-1.2h.571l-.632,2.964h-.571l.267-1.266H20.259l-.267,1.266H19.42Z" transform="translate(-19.42 -451.616)" fill="#0171bb" />
                    <path id="Path_60" data-name="Path 60" d="M41.826,457.406a.754.754,0,0,1-.328-.069.7.7,0,0,1-.244-.19.831.831,0,0,1-.153-.287,1.178,1.178,0,0,1-.052-.354,1.375,1.375,0,0,1,.1-.52,1.451,1.451,0,0,1,.263-.435,1.278,1.278,0,0,1,.382-.3.972.972,0,0,1,.455-.112.629.629,0,0,1,.384.116.584.584,0,0,1,.218.3l.084-.375h.561l-.326,1.537a.289.289,0,0,0-.013.075c0,.058.034.088.1.093l-.1.476-.132.022a.578.578,0,0,1-.1.009.385.385,0,0,1-.231-.062.218.218,0,0,1-.086-.188.8.8,0,0,1,.026-.16,1.01,1.01,0,0,1-.808.418Zm.25-.476a.453.453,0,0,0,.153-.028.627.627,0,0,0,.157-.078,1.2,1.2,0,0,0,.142-.116.661.661,0,0,0,.112-.147l.108-.522a.507.507,0,0,0-.147-.3.382.382,0,0,0-.28-.121.541.541,0,0,0-.259.069.746.746,0,0,0-.22.183,1.031,1.031,0,0,0-.151.259.825.825,0,0,0-.056.3.571.571,0,0,0,.116.364A.4.4,0,0,0,42.076,456.929Z" transform="translate(-36.387 -454.314)" fill="#0171bb" />
                    <path id="Path_61" data-name="Path 61" d="M60.984,452.17h.561l-.464,2.188H60.52Zm.183-.86h.561l-.116.556H61.05Z" transform="translate(-51.66 -451.31)" fill="#0171bb" />
                    <path id="Path_62" data-name="Path 62" d="M73.633,455.222h.513l-.1.468a1.369,1.369,0,0,1,.356-.358.7.7,0,0,1,.392-.132.47.47,0,0,1,.063,0l.037.006-.1.5a1.09,1.09,0,0,0-.448.1.746.746,0,0,0-.332.282l-.28,1.324H73.17Z" transform="translate(-61.582 -454.361)" fill="#0171bb" />
                    <path id="Path_63" data-name="Path 63" d="M87.13,463.75l.222-.5h-.175l.125-.584h.481l-.125.584-.272.5Z" transform="translate(-72.533 -460.221)" fill="#0171bb" />
                    <path id="Path_64" data-name="Path 64" d="M112.792,451.7h.446l1.011,1.947.414-1.942h.571l-.632,2.962h-.464l-1.007-1.9-.4,1.9h-.571Z" transform="translate(-92.167 -451.616)" fill="#0171bb" />
                    <path id="Path_65" data-name="Path 65" d="M134.846,457.406a.754.754,0,0,1-.328-.069.7.7,0,0,1-.244-.19.831.831,0,0,1-.153-.287,1.178,1.178,0,0,1-.052-.354,1.375,1.375,0,0,1,.1-.52,1.451,1.451,0,0,1,.263-.435,1.278,1.278,0,0,1,.382-.3.972.972,0,0,1,.455-.112.629.629,0,0,1,.384.116.584.584,0,0,1,.218.3l.084-.375h.561l-.326,1.537a.289.289,0,0,0-.013.075c0,.058.034.088.1.093l-.1.476-.132.022a.578.578,0,0,1-.1.009.385.385,0,0,1-.231-.062.218.218,0,0,1-.086-.188.8.8,0,0,1,.026-.16,1.01,1.01,0,0,1-.808.418Zm.252-.476a.453.453,0,0,0,.153-.028.626.626,0,0,0,.157-.078,1.2,1.2,0,0,0,.142-.116.661.661,0,0,0,.112-.147l.108-.522a.507.507,0,0,0-.147-.3.382.382,0,0,0-.28-.121.541.541,0,0,0-.259.069.746.746,0,0,0-.22.183,1.032,1.032,0,0,0-.151.259.825.825,0,0,0-.056.3.571.571,0,0,0,.116.364A.4.4,0,0,0,135.1,456.929Z" transform="translate(-109.353 -454.314)" fill="#0171bb" />
                    <path id="Path_66" data-name="Path 66" d="M154,452.17h.561l-.464,2.188h-.561Zm.183-.86h.561l-.116.556h-.561Z" transform="translate(-124.626 -451.31)" fill="#0171bb" />
                    <path id="Path_67" data-name="Path 67" d="M167.018,454.393a.485.485,0,0,1-.326-.1.352.352,0,0,1-.112-.282c0-.026,0-.05,0-.075a.663.663,0,0,1,.013-.084l.543-2.544h.556l-.5,2.348c0,.015,0,.028-.006.041a.263.263,0,0,0,0,.041.15.15,0,0,0,.17.17.412.412,0,0,0,.106-.017.889.889,0,0,0,.114-.041l-.017.427a1.2,1.2,0,0,1-.274.084A1.491,1.491,0,0,1,167.018,454.393Z" transform="translate(-134.855 -451.31)" fill="#0171bb" />
                    <path id="Path_68" data-name="Path 68" d="M180.393,457.39a1.425,1.425,0,0,1-.5-.088.92.92,0,0,1-.375-.25l.28-.351a.991.991,0,0,0,.664.289.455.455,0,0,0,.276-.075.248.248,0,0,0,.1-.209.161.161,0,0,0-.091-.144,1.437,1.437,0,0,0-.291-.11c-.112-.034-.207-.067-.287-.1a.872.872,0,0,1-.2-.106.356.356,0,0,1-.112-.132.385.385,0,0,1-.034-.168.7.7,0,0,1,.08-.336.813.813,0,0,1,.216-.261.981.981,0,0,1,.315-.168,1.166,1.166,0,0,1,.379-.06,1.191,1.191,0,0,1,.423.071.873.873,0,0,1,.334.231l-.3.338a.921.921,0,0,0-.269-.183.7.7,0,0,0-.278-.058.444.444,0,0,0-.252.071.244.244,0,0,0-.106.218.144.144,0,0,0,.08.134,1.38,1.38,0,0,0,.267.1,1.687,1.687,0,0,1,.517.216.38.38,0,0,1,.166.328.725.725,0,0,1-.075.328.765.765,0,0,1-.209.254.974.974,0,0,1-.319.166A1.524,1.524,0,0,1,180.393,457.39Z" transform="translate(-145.005 -454.299)" fill="#0171bb" />
                    <path id="Path_69" data-name="Path 69" d="M211.264,454.243a1.548,1.548,0,0,1-.418.239,1.231,1.231,0,0,1-.431.082.833.833,0,0,1-.323-.058.672.672,0,0,1-.235-.157.659.659,0,0,1-.147-.231.764.764,0,0,1-.05-.282.792.792,0,0,1,.056-.3.9.9,0,0,1,.153-.248,1.357,1.357,0,0,1,.222-.207c.084-.063.172-.123.267-.181a1.523,1.523,0,0,1-.155-.3.772.772,0,0,1-.045-.261.739.739,0,0,1,.075-.328.782.782,0,0,1,.2-.261.965.965,0,0,1,.3-.17,1.013,1.013,0,0,1,.351-.063.782.782,0,0,1,.446.134.683.683,0,0,1,.272.4l-.388.218a.477.477,0,0,0-.153-.246.355.355,0,0,0-.229-.088.343.343,0,0,0-.134.026.418.418,0,0,0-.112.067.325.325,0,0,0-.08.1.281.281,0,0,0-.03.125.39.39,0,0,0,.058.188c.039.069.106.172.2.308l.489.709a2.266,2.266,0,0,0,.132-.313,2.743,2.743,0,0,0,.091-.36h.752l-.063.4H212a2.166,2.166,0,0,1-.147.336,3.168,3.168,0,0,1-.179.291l.5.709h-.714Zm-.7-.108a.789.789,0,0,0,.494-.2l-.459-.677a1.213,1.213,0,0,0-.3.239.429.429,0,0,0-.1.278.338.338,0,0,0,.1.267A.376.376,0,0,0,210.561,454.135Z" transform="translate(-168.647 -451.475)" fill="#0171bb" />
                    <path id="Path_70" data-name="Path 70" d="M243.785,451.7h1.52a.448.448,0,0,1,.22.052.5.5,0,0,1,.157.136.639.639,0,0,1,.095.192.788.788,0,0,1,.032.226.857.857,0,0,1-.039.254.89.89,0,0,1-.114.237.947.947,0,0,1-.181.2.907.907,0,0,1-.235.144.536.536,0,0,1,.289.216.664.664,0,0,1,.1.373.826.826,0,0,1-.093.4.9.9,0,0,1-.246.293,1.063,1.063,0,0,1-.356.179,1.4,1.4,0,0,1-.414.06h-1.36Zm.834,2.477a.391.391,0,0,0,.16-.037.439.439,0,0,0,.14-.1.524.524,0,0,0,.1-.151.426.426,0,0,0,.037-.181.368.368,0,0,0-.065-.22.2.2,0,0,0-.177-.091h-.819l-.164.78h.789Zm.181-1.237a.371.371,0,0,0,.149-.032.4.4,0,0,0,.132-.095.465.465,0,0,0,.095-.147.487.487,0,0,0,.034-.19.324.324,0,0,0-.063-.207.2.2,0,0,0-.166-.078h-.727l-.16.748Z" transform="translate(-194.925 -451.616)" fill="#0171bb" />
                    <path id="Path_71" data-name="Path 71" d="M264.574,457.406a.934.934,0,0,1-.386-.073.789.789,0,0,1-.276-.2.848.848,0,0,1-.166-.291,1.1,1.1,0,0,1-.056-.349,1.307,1.307,0,0,1,.1-.5,1.4,1.4,0,0,1,.285-.433,1.369,1.369,0,0,1,.431-.3,1.284,1.284,0,0,1,.548-.114.919.919,0,0,1,.382.073.842.842,0,0,1,.278.2.783.783,0,0,1,.168.291,1.138,1.138,0,0,1,.056.356,1.288,1.288,0,0,1-.1.5,1.451,1.451,0,0,1-.285.433,1.369,1.369,0,0,1-.431.3A1.344,1.344,0,0,1,264.574,457.406Zm.1-.476a.536.536,0,0,0,.252-.065.8.8,0,0,0,.22-.172.849.849,0,0,0,.155-.257.858.858,0,0,0,.058-.315.581.581,0,0,0-.108-.364.357.357,0,0,0-.3-.14.535.535,0,0,0-.252.065.771.771,0,0,0-.22.175.876.876,0,0,0-.155.257.839.839,0,0,0-.058.313.581.581,0,0,0,.108.364A.36.36,0,0,0,264.675,456.929Z" transform="translate(-211.029 -454.314)" fill="#0171bb" />
                    <path id="Path_72" data-name="Path 72" d="M283.566,454.409a.761.761,0,0,1-.328-.069.7.7,0,0,1-.244-.19.831.831,0,0,1-.153-.287,1.177,1.177,0,0,1-.052-.354,1.375,1.375,0,0,1,.1-.52,1.45,1.45,0,0,1,.263-.435,1.277,1.277,0,0,1,.382-.3.972.972,0,0,1,.455-.112.629.629,0,0,1,.384.116.584.584,0,0,1,.218.3l.267-1.244h.561l-.509,2.406a.289.289,0,0,0-.013.075c0,.058.035.088.1.093l-.1.476-.132.022a.577.577,0,0,1-.1.009.414.414,0,0,1-.233-.058.2.2,0,0,1-.086-.179.462.462,0,0,1,.006-.073q.007-.039.019-.1a1,1,0,0,1-.806.416Zm.25-.476a.453.453,0,0,0,.153-.028.627.627,0,0,0,.157-.078,1.2,1.2,0,0,0,.142-.116.66.66,0,0,0,.112-.147l.108-.522a.507.507,0,0,0-.147-.3.382.382,0,0,0-.28-.121.541.541,0,0,0-.259.069.745.745,0,0,0-.22.183,1.031,1.031,0,0,0-.151.259.825.825,0,0,0-.056.3.572.572,0,0,0,.116.364A.4.4,0,0,0,283.816,453.933Z" transform="translate(-226.012 -451.318)" fill="#0171bb" />
                    <path id="Path_73" data-name="Path 73" d="M301.48,458a2.074,2.074,0,0,0,.216-.03.578.578,0,0,0,.16-.052.518.518,0,0,0,.127-.093.967.967,0,0,0,.121-.144l.121-.164-.364-2.233h.571l.188,1.7.142-.233c.086-.142.162-.274.226-.4s.121-.244.17-.362.093-.233.129-.349.069-.235.1-.362h.543c-.039.134-.08.259-.121.375a3.257,3.257,0,0,1-.16.371c-.065.132-.142.276-.235.435s-.209.351-.345.573l-.334.539a3.5,3.5,0,0,1-.282.395,1.54,1.54,0,0,1-.276.261.964.964,0,0,1-.3.144,1.38,1.38,0,0,1-.338.047Z" transform="translate(-240.673 -454.424)" fill="#0171bb" />
                    <path id="Path_74" data-name="Path 74" d="M332.814,454.636a1.835,1.835,0,0,1-.6-.1,1.476,1.476,0,0,1-.5-.285l.36-.5a.4.4,0,0,0,.1.1,1.351,1.351,0,0,0,.192.121,1.289,1.289,0,0,0,.263.1,1.136,1.136,0,0,0,.31.041.6.6,0,0,0,.373-.1.317.317,0,0,0,.123-.261.207.207,0,0,0-.047-.138.439.439,0,0,0-.132-.1,1.614,1.614,0,0,0-.2-.086c-.078-.026-.162-.054-.252-.082a1.325,1.325,0,0,1-.476-.239.506.506,0,0,1-.164-.4,1,1,0,0,1,.1-.461,1.056,1.056,0,0,1,.278-.345,1.239,1.239,0,0,1,.4-.216,1.514,1.514,0,0,1,.474-.073,1.356,1.356,0,0,1,.528.1,1.5,1.5,0,0,1,.39.231l-.356.468a.333.333,0,0,0-.08-.08.865.865,0,0,0-.157-.1,1.275,1.275,0,0,0-.211-.082.908.908,0,0,0-.241-.034.564.564,0,0,0-.375.108.362.362,0,0,0-.125.289.212.212,0,0,0,.037.123.323.323,0,0,0,.106.093.98.98,0,0,0,.17.073q.1.032.233.071a2.242,2.242,0,0,1,.3.1.888.888,0,0,1,.231.14.544.544,0,0,1,.149.194.635.635,0,0,1,.052.267,1.009,1.009,0,0,1-.108.481.953.953,0,0,1-.285.328,1.191,1.191,0,0,1-.4.185A1.744,1.744,0,0,1,332.814,454.636Z" transform="translate(-264.385 -451.553)" fill="#0171bb" />
                    <path id="Path_75" data-name="Path 75" d="M351.028,455.167h.489l-.08.375a1.231,1.231,0,0,1,.362-.3.912.912,0,0,1,.44-.11.727.727,0,0,1,.317.069.669.669,0,0,1,.239.192.887.887,0,0,1,.151.287,1.154,1.154,0,0,1,.052.351,1.4,1.4,0,0,1-.1.517,1.512,1.512,0,0,1-.259.435,1.234,1.234,0,0,1-.377.3.954.954,0,0,1-.448.112.664.664,0,0,1-.4-.114.584.584,0,0,1-.218-.31l-.272,1.274h-.561Zm.7,1.755a.526.526,0,0,0,.257-.069.758.758,0,0,0,.218-.181.982.982,0,0,0,.151-.257.825.825,0,0,0,.056-.3.58.58,0,0,0-.116-.369.385.385,0,0,0-.317-.147.455.455,0,0,0-.155.028.615.615,0,0,0-.155.078,1.018,1.018,0,0,0-.142.116.663.663,0,0,0-.112.147l-.112.513a.586.586,0,0,0,.151.31A.361.361,0,0,0,351.732,456.921Z" transform="translate(-279.023 -454.306)" fill="#0171bb" />
                    <path id="Path_76" data-name="Path 76" d="M372.016,457.406a.761.761,0,0,1-.328-.069.7.7,0,0,1-.244-.19.831.831,0,0,1-.153-.287,1.178,1.178,0,0,1-.052-.354,1.374,1.374,0,0,1,.1-.52,1.45,1.45,0,0,1,.263-.435,1.278,1.278,0,0,1,.382-.3.972.972,0,0,1,.455-.112.629.629,0,0,1,.384.116.584.584,0,0,1,.218.3l.084-.375h.561l-.326,1.537a.29.29,0,0,0-.013.075c0,.058.035.088.1.093l-.1.476-.132.022a.578.578,0,0,1-.1.009.385.385,0,0,1-.231-.062.218.218,0,0,1-.086-.188.8.8,0,0,1,.026-.16,1.01,1.01,0,0,1-.808.418Zm.25-.476a.453.453,0,0,0,.153-.028.627.627,0,0,0,.157-.078,1.194,1.194,0,0,0,.142-.116.661.661,0,0,0,.112-.147l.108-.522a.508.508,0,0,0-.147-.3.382.382,0,0,0-.28-.121.541.541,0,0,0-.259.069.746.746,0,0,0-.22.183,1.031,1.031,0,0,0-.151.259.824.824,0,0,0-.056.3.571.571,0,0,0,.116.364A.4.4,0,0,0,372.266,456.929Z" transform="translate(-295.393 -454.314)" fill="#0171bb" />
                </g>
                <g id="Group_61" data-name="Group 61" transform="translate(17.017 340.42)">
                    <g id="Group_40" data-name="Group 40" transform="translate(0 3.54)">
                        <g id="Group_28" data-name="Group 28" transform="translate(0 0.593)">
                            <g id="Group_27" data-name="Group 27">
                                <path id="Path_77" data-name="Path 77" d="M30.181,364.525a9.8,9.8,0,0,1-.7.88,1.218,1.218,0,0,1-.535.41q-.2.036-.2-.362A6.029,6.029,0,0,1,29.075,364a2.392,2.392,0,0,0,.082-1.334,1.921,1.921,0,0,0-.517-.916,1.75,1.75,0,0,0-.854-.453,1.67,1.67,0,0,0-.944.054,1.612,1.612,0,0,0-.772.617,2.206,2.206,0,0,0-.336,1.227,5.847,5.847,0,0,0,.345,1.889,12.422,12.422,0,0,0,1.289,2.606,6.3,6.3,0,0,1,.862,2.126,5.727,5.727,0,0,1,.037,2.07,5.54,5.54,0,0,1-.69,1.88,5.644,5.644,0,0,1-1.306,1.524,6.225,6.225,0,0,1-1.807,1.018,6.352,6.352,0,0,1-2.2.373,4.528,4.528,0,0,1-.854-.1,5.8,5.8,0,0,1-1.08-.336,5.961,5.961,0,0,1-1.145-.636,4.784,4.784,0,0,1-1.043-1.007,5.325,5.325,0,0,1-.78-1.444,6.585,6.585,0,0,1,.028-4.3,5.632,5.632,0,0,1,1.08-1.789,4.824,4.824,0,0,1,1.5-1.125,3.737,3.737,0,0,1,1.606-.39,2.988,2.988,0,0,1,1.171.235,2.748,2.748,0,0,1,.962.681,2.849,2.849,0,0,1,.608,1.071,3.469,3.469,0,0,1,.127,1.388,4.042,4.042,0,0,1-.464,1.606,4.158,4.158,0,0,1-.744,1.009,1.1,1.1,0,0,1-.608.354c-.157.006-.17-.106-.037-.336a4.94,4.94,0,0,0,.735-2.27,2.421,2.421,0,0,0-.4-1.507,1.632,1.632,0,0,0-1.089-.653,2.021,2.021,0,0,0-1.352.272,3.237,3.237,0,0,0-1.179,1.3,5.414,5.414,0,0,0-.563,2.423A4.36,4.36,0,0,0,19,372.833a4.006,4.006,0,0,0,.8,1.326,3.592,3.592,0,0,0,1.171.854,3.283,3.283,0,0,0,1.371.3,3.69,3.69,0,0,0,2.205-.645,4.19,4.19,0,0,0,1.371-1.643,5.311,5.311,0,0,0,.489-2.225,5.906,5.906,0,0,0-.455-2.369,11.71,11.71,0,0,0-.627-1.281q-.352-.627-.673-1.261a7.293,7.293,0,0,1-.509-1.326,4.085,4.085,0,0,1-.119-1.47,3.659,3.659,0,0,1,.517-1.651,3.872,3.872,0,0,1,.99-1.08,4.026,4.026,0,0,1,1.145-.591,3.406,3.406,0,0,1,.981-.181,2.852,2.852,0,0,1,2.152.916,3.22,3.22,0,0,1,.591.927,3.5,3.5,0,0,1,.263,1.071,3.544,3.544,0,0,1-.073,1.08A2.673,2.673,0,0,1,30.181,364.525Z" transform="translate(-17.017 -359.59)" fill="#019add" />
                            </g>
                        </g>
                        <g id="Group_30" data-name="Group 30" transform="translate(12.333 8.103)">
                            <g id="Group_29" data-name="Group 29" transform="translate(0)">
                                <path id="Path_78" data-name="Path 78" d="M79.741,395.191a1.6,1.6,0,0,1,.617-.627,1.119,1.119,0,0,1,.662-.127.961.961,0,0,1,.554.282,1.056,1.056,0,0,1,.291.617,1.229,1.229,0,0,0-.328.136.808.808,0,0,0-.246.308,4.187,4.187,0,0,0-.254.653q-.136.427-.345,1.162c-.14.489-.308,1.108-.509,1.852s-.451,1.649-.752,2.714a7.544,7.544,0,0,0-.19.808,1.3,1.3,0,0,0-.017.427.335.335,0,0,0,.091.2,1.073,1.073,0,0,0,.155.11,1.143,1.143,0,0,1-.6.282,1.166,1.166,0,0,1-.617-.073,1.088,1.088,0,0,1-.489-.4,1.231,1.231,0,0,1-.218-.681,2.137,2.137,0,0,1-1.134,1.08,1.529,1.529,0,0,1-1.179-.054,1.8,1.8,0,0,1-.834-.89,1.954,1.954,0,0,1-.082-1.408l1.38-4.9a3.225,3.225,0,0,1,1.026-1.707,2.661,2.661,0,0,1,1.679-.526,1.311,1.311,0,0,1,.826.246A2.764,2.764,0,0,1,79.741,395.191Zm-1.634,5.284q.437-1.543.681-2.406c.164-.576.285-1.007.362-1.3s.136-.489.172-.6l.11-.328a1.089,1.089,0,0,0-.254-.427.717.717,0,0,0-.545-.192.764.764,0,0,0-.627.373,4.843,4.843,0,0,0-.535,1.153c-.181.52-.379,1.177-.591,1.97s-.47,1.74-.772,2.841a1.566,1.566,0,0,0-.037,1.052.349.349,0,0,0,.509.136,2.235,2.235,0,0,0,.772-.727A5.434,5.434,0,0,0,78.107,400.475Z" transform="translate(-74.225 -394.427)" fill="#019add" />
                            </g>
                        </g>
                        <g id="Group_32" data-name="Group 32" transform="translate(19.326)">
                            <g id="Group_31" data-name="Group 31">
                                <path id="Path_79" data-name="Path 79" d="M110.9,358.027a2.216,2.216,0,0,1,.645-.916,1.154,1.154,0,0,1,.727-.272.986.986,0,0,1,.636.254,1.082,1.082,0,0,1,.354.645l-.263.1a.493.493,0,0,0-.226.237,4.431,4.431,0,0,0-.254.563q-.146.372-.354,1.052c-.14.455-.308,1.035-.509,1.744s-.444,1.582-.735,2.624-.632,2.27-1.026,3.686-.849,3.063-1.371,4.939a6.25,6.25,0,0,0-.181.808,1.442,1.442,0,0,0-.009.427.335.335,0,0,0,.091.2,1.074,1.074,0,0,0,.155.11,1.153,1.153,0,0,1-.7.3,1.087,1.087,0,0,1-.7-.181,1.19,1.19,0,0,1-.455-.627,1.784,1.784,0,0,1,.017-1.035q1-3.522,1.679-5.957t1.125-4.023q.446-1.588.7-2.479t.382-1.343c.084-.3.142-.5.172-.6A1.388,1.388,0,0,1,110.9,358.027Z" transform="translate(-106.663 -356.839)" fill="#019add" />
                            </g>
                        </g>
                        <g id="Group_34" data-name="Group 34" transform="translate(23.129 8.106)">
                            <g id="Group_33" data-name="Group 33">
                                <path id="Path_80" data-name="Path 80" d="M130.985,396.691q-.417,1.452-.69,2.443t-.464,1.662c-.127.448-.235.806-.328,1.071a4.83,4.83,0,0,1-.263.645,1.538,1.538,0,0,1-.282.4c-.1.1-.226.216-.373.336a3.738,3.738,0,0,1-1,.608,3.22,3.22,0,0,1-1.289.155,2.517,2.517,0,0,1-1.035-.181,1.68,1.68,0,0,1-.617-.444,1.311,1.311,0,0,1-.282-.582,3.09,3.09,0,0,1-.065-.617,2.5,2.5,0,0,1,.054-.545c.037-.164.067-.287.091-.373q.543-1.943.854-3.186a12.578,12.578,0,0,1,.636-1.988,2.683,2.683,0,0,1,.817-1.108,3.554,3.554,0,0,1,1.4-.545q.036,0,.065.091a1.813,1.813,0,0,1,.045.218c.013.084.022.162.028.226s.009.106.009.119a2.274,2.274,0,0,0-.254.308,3.547,3.547,0,0,0-.226.4,3.056,3.056,0,0,0-.209.563l-1.38,4.9c-.073.267-.14.526-.2.78a2.982,2.982,0,0,0-.091.681.917.917,0,0,0,.11.481.448.448,0,0,0,.418.181.81.81,0,0,0,.6-.263,2.345,2.345,0,0,0,.427-.617,4.276,4.276,0,0,0,.272-.709c.067-.235.119-.414.155-.535l1.289-4.575a1.523,1.523,0,0,0,.073-.834.265.265,0,0,0-.308-.2.9.9,0,0,0-.481.336,2.281,2.281,0,0,0-.427.789,3.424,3.424,0,0,0-.155,1.125,3.467,3.467,0,0,0,.336,1.362.644.644,0,0,1,.065.418.317.317,0,0,1-.164.235.284.284,0,0,1-.272-.037.728.728,0,0,1-.263-.4,3.232,3.232,0,0,1-.155-.871,6.086,6.086,0,0,1,.045-1.071,5.559,5.559,0,0,1,.263-1.117,4.46,4.46,0,0,1,.481-1,2.5,2.5,0,0,1,.69-.718,1.607,1.607,0,0,1,.927-.272,1.031,1.031,0,0,1,.645.2,1.352,1.352,0,0,1,.41.517,1.929,1.929,0,0,1,.164.718A2.823,2.823,0,0,1,130.985,396.691Z" transform="translate(-124.3 -394.44)" fill="#019add" />
                            </g>
                        </g>
                        <g id="Group_36" data-name="Group 36" transform="translate(29.929 8.108)">
                            <g id="Group_35" data-name="Group 35">
                                <path id="Path_81" data-name="Path 81" d="M161.193,402.183a6.247,6.247,0,0,0-.181.808,1.442,1.442,0,0,0-.009.427.335.335,0,0,0,.091.2,1.075,1.075,0,0,0,.155.11,1.153,1.153,0,0,1-.7.3,1.087,1.087,0,0,1-.7-.181,1.2,1.2,0,0,1-.455-.627,1.784,1.784,0,0,1,.017-1.035l1.544-5.484a2.8,2.8,0,0,0,.144-.808c-.013-.138-.073-.179-.181-.119a1.724,1.724,0,0,0-.427.41q-.265.317-.571.755c-.207.291-.42.606-.645.944s-.433.653-.627.944l-.944,3.359a6.251,6.251,0,0,0-.181.808,1.442,1.442,0,0,0-.009.427.335.335,0,0,0,.091.2,1.073,1.073,0,0,0,.155.11,1.153,1.153,0,0,1-.7.3,1.087,1.087,0,0,1-.7-.181,1.19,1.19,0,0,1-.455-.627,1.784,1.784,0,0,1,.017-1.035q.417-1.488.709-2.514c.194-.683.351-1.25.472-1.7s.218-.8.291-1.054.129-.448.172-.58.069-.231.082-.291a1.153,1.153,0,0,1,.054-.181c.013-.06,0-.1-.037-.11s-.08-.024-.127-.037l-.144-.037a.1.1,0,0,1-.073-.11,1.189,1.189,0,0,1,.155-.2,4.143,4.143,0,0,1,.39-.39,3.149,3.149,0,0,1,.526-.373,1.111,1.111,0,0,1,.545-.164.685.685,0,0,1,.582.2.868.868,0,0,1,.1.608,5.621,5.621,0,0,1-.235,1.009c-.127.4-.263.867-.41,1.4q.327-.527.709-1.1t.752-1.043a7.283,7.283,0,0,1,.69-.772.874.874,0,0,1,.517-.3,1.1,1.1,0,0,1,.6.172,1.239,1.239,0,0,1,.435.481,1.731,1.731,0,0,1,.19.718,2.283,2.283,0,0,1-.136.882Z" transform="translate(-155.843 -394.45)" fill="#019add" />
                            </g>
                        </g>
                        <g id="Group_37" data-name="Group 37" transform="translate(40.638 0.587)">
                            <path id="Path_82" data-name="Path 82" d="M224.437,359.762a.134.134,0,0,1,.1.155.168.168,0,0,1-.136.155.922.922,0,0,0-.571.5,7.311,7.311,0,0,0-.526,1.27q-.281.844-.636,2.171t-.88,3.195c.291-.1.524-.185.7-.263a.563.563,0,0,1,.382-.073c.08.03.11.14.091.328a8.64,8.64,0,0,1-.172.936,1.046,1.046,0,0,1-.41.582,2.55,2.55,0,0,1-1.134.435l-1.47,5.193a1.469,1.469,0,0,0-.082.545,2.428,2.428,0,0,0,.082.563,2.456,2.456,0,0,0,.19.5.993.993,0,0,0,.263.336.184.184,0,0,1,.073.235.175.175,0,0,1-.2.127,3.326,3.326,0,0,1-1.3-.246,1.905,1.905,0,0,1-.755-.563,1.473,1.473,0,0,1-.3-.735,1.716,1.716,0,0,1,.082-.763l1.453-5.157c-.435-.047-.923-.119-1.462-.209s-1.056-.185-1.552-.282-.936-.185-1.317-.263-.645-.129-.789-.155l-.817,2.923a10.815,10.815,0,0,1-1.253,2.723,7.484,7.484,0,0,1-.772,1,5.946,5.946,0,0,1-.99.871,5.016,5.016,0,0,1-1.207.617,4.274,4.274,0,0,1-1.444.235,2.319,2.319,0,0,1-1.408-.362,1.764,1.764,0,0,1-.645-.845,1.893,1.893,0,0,1-.073-.972,1.685,1.685,0,0,1,.291-.744,1.323,1.323,0,0,1,.481-.39.926.926,0,0,1,.455-.1.262.262,0,0,1,.246.19.677.677,0,0,1-.144.5,1.8,1.8,0,0,0-.328.972.84.84,0,0,0,.291.636,1.314,1.314,0,0,0,.727.272,2.122,2.122,0,0,0,.962-.144,3.281,3.281,0,0,0,1-.617,3.806,3.806,0,0,0,.854-1.117,8.252,8.252,0,0,0,.427-.908q.171-.437.362-1.035t.427-1.479q.236-.88.617-2.242a5.907,5.907,0,0,0-.591.1,1.22,1.22,0,0,1-.444.037.169.169,0,0,1-.164-.181,1.2,1.2,0,0,1,.272-.535,1.012,1.012,0,0,1,.435-.263,4.7,4.7,0,0,1,.8-.226l1.725-6.174a3.692,3.692,0,0,0-1.86.2,3.3,3.3,0,0,0-1.272.89,2.875,2.875,0,0,0-.636,1.235,2.167,2.167,0,0,0,.045,1.235.634.634,0,0,1-.054.481.864.864,0,0,1-.328.382.362.362,0,0,1-.4,0c-.134-.078-.224-.3-.272-.662a3.778,3.778,0,0,1,.019-.817,4.333,4.333,0,0,1,.272-1.018A4.8,4.8,0,0,1,211,361.032a5.511,5.511,0,0,1,1.516-1,4.9,4.9,0,0,1,1.354-.382c.4-.043.653-.062.763-.062.194,0,.39,0,.591-.009s.33-.009.39-.009a.573.573,0,0,1,.282.091,1.171,1.171,0,0,1,.272.218,1.031,1.031,0,0,1,.181.272.393.393,0,0,1,.028.272l-1.869,6.681q.653.055,1.261.164c.405.073.817.136,1.235.192s.847.1,1.289.136a9.229,9.229,0,0,0,1.425,0q.653-2.306,1.035-3.732t.662-2.251a5.6,5.6,0,0,1,.526-1.2,1.913,1.913,0,0,1,.608-.591,1.657,1.657,0,0,1,1.026-.254A3.126,3.126,0,0,1,224.437,359.762Z" transform="translate(-205.52 -359.562)" fill="#0072b9" />
                        </g>
                        <g id="Group_38" data-name="Group 38" transform="translate(58.006 7.048)">
                            <path id="Path_83" data-name="Path 83" d="M291.825,389.724a1.48,1.48,0,0,1,.535.474,1.372,1.372,0,0,1,.22.612,1.437,1.437,0,0,1-.063.619l-.619,2.214a1.934,1.934,0,0,1-.179.453,3.779,3.779,0,0,1-.3.427,2.122,2.122,0,0,1-.5.44q-.618.414-1.119.681a7.291,7.291,0,0,0-.789.474,1.919,1.919,0,0,0-.412.4,1.943,1.943,0,0,0-.233.4,2.724,2.724,0,0,0-.151.44l-.4,1.416a3.9,3.9,0,0,1,.412-.034,3.442,3.442,0,0,1,.481.021,6.874,6.874,0,0,1,.845.132,2.585,2.585,0,0,0,.569.076,3.892,3.892,0,0,0,.481-.028.749.749,0,0,0,.412-.179c.11-.1.194-.138.254-.11s.08.065.063.11a.458.458,0,0,1-.063.138c-.041.073-.091.157-.151.254s-.123.2-.192.3-.129.2-.185.282a1.133,1.133,0,0,1-.33.33.894.894,0,0,1-.453.1,1.254,1.254,0,0,1-.33-.047l-.4-.11c-.147-.041-.306-.08-.481-.116a2.737,2.737,0,0,0-.563-.054,5.263,5.263,0,0,0-.686.047q-.372.049-.686.116c-.248.045-.494.1-.742.164l.783-2.8a2.144,2.144,0,0,1,.164-.44,2.855,2.855,0,0,1,.254-.405,2.367,2.367,0,0,1,.39-.405c.119-.091.265-.192.44-.3s.358-.224.556-.343.4-.239.6-.364a4.711,4.711,0,0,0,.55-.392,1.586,1.586,0,0,0,.364-.343,2.572,2.572,0,0,0,.226-.343,1.783,1.783,0,0,0,.151-.371l.619-2.21a2.358,2.358,0,0,0,.088-.474.947.947,0,0,0-.056-.433.659.659,0,0,0-.267-.315,1.047,1.047,0,0,0-.563-.123,1.223,1.223,0,0,0-.761.267,1.467,1.467,0,0,0-.5.789l-.1.289-.261.905c-.019.093-.041.188-.069.289a4.886,4.886,0,0,0-.11.576.541.541,0,0,0,.047.384,1.023,1.023,0,0,0,.2.248.878.878,0,0,0,.33.164.444.444,0,0,1-.179.164.988.988,0,0,1-.289.11,2.1,2.1,0,0,1-.466.041,1.011,1.011,0,0,1-.481-.1.953.953,0,0,1-.308-.254.9.9,0,0,1-.164-.323,1.144,1.144,0,0,1-.047-.308,1.858,1.858,0,0,1,.028-.308,2.754,2.754,0,0,1,.069-.323c.028-.119.06-.237.1-.358l.261-.905a4.092,4.092,0,0,1,.349-.735,2.806,2.806,0,0,1,.494-.608,2.412,2.412,0,0,1,.61-.412,1.591,1.591,0,0,1,.686-.155h1.125A1.858,1.858,0,0,1,291.825,389.724Z" transform="translate(-286.08 -389.53)" fill="#0072b9" />
                        </g>
                        <g id="Group_39" data-name="Group 39" transform="translate(65.093 0.518)">
                            <path id="Path_84" data-name="Path 84" d="M331.758,368.045a15.852,15.852,0,0,1-1.535,3.777,10.967,10.967,0,0,1-2.024,2.57,7.164,7.164,0,0,1-4.885,1.934,4.941,4.941,0,0,1-1.962-.345,3.653,3.653,0,0,1-1.306-.916,3.758,3.758,0,0,1-.755-1.3,6.218,6.218,0,0,1-.308-1.507,7.434,7.434,0,0,1,.028-1.535,9.277,9.277,0,0,1,.263-1.371,6.033,6.033,0,0,1,.382-1.043,1.053,1.053,0,0,1,.41-.517.4.4,0,0,1,.3.009,1.913,1.913,0,0,1,.4.192,1.866,1.866,0,0,1,.373.3.773.773,0,0,1,.2.317,1.446,1.446,0,0,1-.136.291,5.176,5.176,0,0,0-.3.727,7.9,7.9,0,0,0-.291,1.153,7.013,7.013,0,0,0-.091,1.552,3.543,3.543,0,0,0,.58,2,2.544,2.544,0,0,0,1.388,1.007,3.317,3.317,0,0,0,1.871-.054,5.641,5.641,0,0,0,2.052-1.179,9.685,9.685,0,0,0,1.934-2.4,14.423,14.423,0,0,0,1.49-3.7,12.4,12.4,0,0,0,.526-4.139,4.727,4.727,0,0,0-.808-2.479,2.639,2.639,0,0,0-1.662-1.043,3.838,3.838,0,0,0-2.024.19,5.419,5.419,0,0,0-1.906,1.216,5.136,5.136,0,0,0-1.3,2.024,6.284,6.284,0,0,0-.373,1.535,3.193,3.193,0,0,0,.073,1.162,1.371,1.371,0,0,0,.427.718.86.86,0,0,0,.69.181c.4-.047.666,0,.8.144a.506.506,0,0,1,.119.509,1.072,1.072,0,0,1-.418.545,1.268,1.268,0,0,1-.791.254,2.393,2.393,0,0,1-1.416-.41,2.34,2.34,0,0,1-.854-1.145,3.987,3.987,0,0,1-.181-1.744,7.669,7.669,0,0,1,.582-2.205,6.159,6.159,0,0,1,1.3-2.007,6.967,6.967,0,0,1,1.824-1.352,6.589,6.589,0,0,1,2.078-.662,5.674,5.674,0,0,1,2.078.073,4.672,4.672,0,0,1,1.826.862,4.388,4.388,0,0,1,1.306,1.7,6.81,6.81,0,0,1,.535,2.587A11.493,11.493,0,0,1,331.758,368.045Z" transform="translate(-318.956 -359.241)" fill="#0072b9" />
                        </g>
                    </g>
                    <g id="Group_45" data-name="Group 45" transform="translate(72.793 5.98)">
                        <g id="Group_42" data-name="Group 42">
                            <g id="Group_41" data-name="Group 41">
                                <path id="Path_85" data-name="Path 85" d="M355.9,370.613a1.227,1.227,0,1,1,1.227-1.227A1.229,1.229,0,0,1,355.9,370.613Zm0-2.145a.918.918,0,1,0,.918.918A.919.919,0,0,0,355.9,368.468Z" transform="translate(-354.67 -368.16)" fill="#0072b9" />
                            </g>
                        </g>
                        <g id="Group_44" data-name="Group 44" transform="translate(1.069 0.498)">
                            <g id="Group_43" data-name="Group 43">
                                <path id="Path_86" data-name="Path 86" d="M359.63,370.47v.192a.584.584,0,0,1,.655.565h.192C360.477,370.683,360.175,370.47,359.63,370.47Z" transform="translate(-359.63 -370.47)" fill="#019add" />
                            </g>
                        </g>
                    </g>
                    <g id="Group_50" data-name="Group 50" transform="translate(76.425 1.895)">
                        <g id="Group_47" data-name="Group 47">
                            <g id="Group_46" data-name="Group 46">
                                <path id="Path_87" data-name="Path 87" d="M372.973,352.116a1.453,1.453,0,1,1,1.453-1.453A1.454,1.454,0,0,1,372.973,352.116Zm0-2.542a1.089,1.089,0,1,0,1.089,1.089A1.09,1.09,0,0,0,372.973,349.574Z" transform="translate(-371.52 -349.21)" fill="#0072b9" />
                            </g>
                        </g>
                        <g id="Group_49" data-name="Group 49" transform="translate(1.25 0.591)">
                            <g id="Group_48" data-name="Group 48">
                                <path id="Path_88" data-name="Path 88" d="M377.32,351.95v.226a.7.7,0,0,1,.793.711h.226C378.34,352.161,378.047,351.95,377.32,351.95Z" transform="translate(-377.32 -351.95)" fill="#019add" />
                            </g>
                        </g>
                    </g>
                    <g id="Group_55" data-name="Group 55" transform="translate(73.375 1.386)">
                        <g id="Group_52" data-name="Group 52">
                            <g id="Group_51" data-name="Group 51">
                                <path id="Path_89" data-name="Path 89" d="M358.351,348.812a.981.981,0,1,1,.981-.981A.982.982,0,0,1,358.351,348.812Zm0-1.718a.737.737,0,1,0,.737.737A.738.738,0,0,0,358.351,347.094Z" transform="translate(-357.37 -346.85)" fill="#0072b9" />
                            </g>
                        </g>
                        <g id="Group_54" data-name="Group 54" transform="translate(0.849 0.399)">
                            <g id="Group_53" data-name="Group 53">
                                <path id="Path_90" data-name="Path 90" d="M361.31,348.7v.153c.181,0,.528.034.528.4h.153C361.993,348.885,361.855,348.7,361.31,348.7Z" transform="translate(-361.31 -348.7)" fill="#019add" />
                            </g>
                        </g>
                    </g>
                    <g id="Group_60" data-name="Group 60" transform="translate(75.981)">
                        <g id="Group_57" data-name="Group 57">
                            <g id="Group_56" data-name="Group 56">
                                <path id="Path_91" data-name="Path 91" d="M370.012,341.524a.552.552,0,1,1,.552-.552A.553.553,0,0,1,370.012,341.524Zm0-.966a.414.414,0,1,0,.414.414A.414.414,0,0,0,370.012,340.558Z" transform="translate(-369.46 -340.42)" fill="#0072b9" />
                            </g>
                        </g>
                        <g id="Group_59" data-name="Group 59" transform="translate(0.423 0.224)">
                            <g id="Group_58" data-name="Group 58">
                                <path id="Path_92" data-name="Path 92" d="M371.42,341.46v.086c.181,0,.354.028.354.209h.086C371.86,341.572,371.784,341.46,371.42,341.46Z" transform="translate(-371.42 -341.46)" fill="#019add" />
                            </g>
                        </g>
                    </g>
                </g>
            </g>
        </svg>