<svg id="twotone-closed_caption-24px" xmlns="http://www.w3.org/2000/svg" width="24" height="24" viewBox="0 0 24 24">
  <path id="Path_4469" data-name="Path 4469" d="M0,0H24V24H0Z" fill="none"/>
  <path id="Path_4470" data-name="Path 4470" d="M15,11V4H4v8.17L5.17,11H15Z" fill="#b8c5d3" opacity="0.3"/>
  <path id="Path_4471" data-name="Path 4471" d="M16,13a1,1,0,0,0,1-1V3a1,1,0,0,0-1-1H3A1,1,0,0,0,2,3V17l4-4ZM4,12.17V4H15v7H5.17ZM22,7a1,1,0,0,0-1-1H19v9H6v2a1,1,0,0,0,1,1H18l4,4Z" fill="#b8c5d3"/>
</svg>
