<svg id="twotone-closed_caption-24px" xmlns="http://www.w3.org/2000/svg" width="24" height="24" viewBox="0 0 24 24">
  <path id="Path_6222" data-name="Path 6222" d="M0,0H24V24H0Z" fill="none"/>
  <path id="Path_6223" data-name="Path 6223" d="M12,6.5C9.51,6.5,8,8.52,8,11v6h8V11C16,8.52,14.49,6.5,12,6.5Z" fill="#b8c5d3" opacity="0.3"/>
  <path id="Path_6224" data-name="Path 6224" d="M18,16V11c0-3.07-1.63-5.64-4.5-6.32V4a1.5,1.5,0,0,0-3,0v.68C7.64,5.36,6,7.92,6,11v5L4,18v1H20V18Zm-2,1H8V11c0-2.48,1.51-4.5,4-4.5s4,2.02,4,4.5Zm-4,5a2.006,2.006,0,0,0,2-2H10A2.006,2.006,0,0,0,12,22Z" fill="#b8c5d3"/>
</svg>
