<svg id="twotone-3d_rotation-24px" xmlns="http://www.w3.org/2000/svg" width="24" height="24" viewBox="0 0 24 24">
  <path id="Path_3586" data-name="Path 3586" d="M0,0H24V24H0Z" fill="none"/>
  <path id="Path_3587" data-name="Path 3587" d="M5,5V19H19V5Zm9,12H7V15h7Zm3-4H7V11H17Zm0-4H7V7H17Z" fill="#b8c5d3" opacity="0.3"/>
  <path id="Path_3588" data-name="Path 3588" d="M7,15h7v2H7Zm0-4H17v2H7ZM7,7H17V9H7ZM19,3H14.82A2.988,2.988,0,0,0,9.18,3H5a1.752,1.752,0,0,0-.4.04A2.021,2.021,0,0,0,3.16,4.23,1.963,1.963,0,0,0,3,5V19a2.052,2.052,0,0,0,.16.78,2.119,2.119,0,0,0,.43.64,2.008,2.008,0,0,0,1.01.55A2.6,2.6,0,0,0,5,21H19a2.006,2.006,0,0,0,2-2V5A2.006,2.006,0,0,0,19,3Zm-7-.25a.75.75,0,1,1-.75.75A.755.755,0,0,1,12,2.75ZM19,19H5V5H19Z" fill="#b8c5d3"/>
</svg>
