<svg id="twotone-closed_caption-24px" xmlns="http://www.w3.org/2000/svg" width="24" height="24" viewBox="0 0 24 24">
  <path id="Path_4606" data-name="Path 4606" d="M0,0H24V24H0Z" fill="none"/>
  <path id="Path_4607" data-name="Path 4607" d="M12,15.36,4,10.34V18H20l-.01-7.63Z" fill="#b8c5d3" opacity="0.3"/>
  <path id="Path_4608" data-name="Path 4608" d="M21.99,8a1.982,1.982,0,0,0-.94-1.7L12,1,2.95,6.3A1.991,1.991,0,0,0,2,8V18a2.006,2.006,0,0,0,2,2H20a2.006,2.006,0,0,0,2-2ZM12,3.32,19.99,8v.01L12,13,4,8l8-4.68ZM4,18V10.34l8,5.02,7.99-4.99L20,18Z" fill="#b8c5d3"/>
</svg>
